<?xml version="1.0" standalone="no"?>
<svg xmlns:xlink="http://www.w3.org/1999/xlink" id="wave" style="transform:rotate(0deg); transition: 0.3s" viewBox="0 0 1440 360" version="1.1" xmlns="http://www.w3.org/2000/svg"><defs><linearGradient id="sw-gradient-0" x1="0" x2="0" y1="1" y2="0"><stop stop-color="rgba(62, 243, 120.375, 1)" offset="0%"/><stop stop-color="rgba(11, 147.55, 255, 1)" offset="100%"/></linearGradient></defs><path style="transform:translate(0, 0px); opacity:1" fill="url(#sw-gradient-0)" d="M0,216L12.6,210C25.3,204,51,192,76,156C101.1,120,126,60,152,30C176.8,0,202,0,227,48C252.6,96,278,192,303,204C328.4,216,354,144,379,132C404.2,120,429,168,455,198C480,228,505,240,531,246C555.8,252,581,252,606,222C631.6,192,657,132,682,138C707.4,144,733,216,758,222C783.2,228,808,168,834,156C858.9,144,884,180,909,216C934.7,252,960,288,985,258C1010.5,228,1036,132,1061,102C1086.3,72,1112,108,1137,102C1162.1,96,1187,48,1213,48C1237.9,48,1263,96,1288,126C1313.7,156,1339,168,1364,192C1389.5,216,1415,252,1440,246C1465.3,240,1491,192,1516,174C1541.1,156,1566,168,1592,192C1616.8,216,1642,252,1667,240C1692.6,228,1718,168,1743,150C1768.4,132,1794,156,1806,168L1818.9,180L1818.9,360L1806.3,360C1793.7,360,1768,360,1743,360C1717.9,360,1693,360,1667,360C1642.1,360,1617,360,1592,360C1566.3,360,1541,360,1516,360C1490.5,360,1465,360,1440,360C1414.7,360,1389,360,1364,360C1338.9,360,1314,360,1288,360C1263.2,360,1238,360,1213,360C1187.4,360,1162,360,1137,360C1111.6,360,1086,360,1061,360C1035.8,360,1011,360,985,360C960,360,935,360,909,360C884.2,360,859,360,834,360C808.4,360,783,360,758,360C732.6,360,707,360,682,360C656.8,360,632,360,606,360C581.1,360,556,360,531,360C505.3,360,480,360,455,360C429.5,360,404,360,379,360C353.7,360,328,360,303,360C277.9,360,253,360,227,360C202.1,360,177,360,152,360C126.3,360,101,360,76,360C50.5,360,25,360,13,360L0,360Z"/></svg>